<svg fill="#eee" xmlns="http://www.w3.org/2000/svg" xmlns:xlink="http://www.w3.org/1999/xlink" version="1.1" x="0px" y="0px" viewBox="0 0 66 82.5" enable-background="new 0 0 66 66" xml:space="preserve"><g><g><path d="M64,8.4H41.1c-0.4,0-0.8,0.2-0.9,0.6L37,16.7H20.6v-2.5c0-0.6-0.4-1-1-1h-0.8V9.4c0-0.6-0.4-1-1-1H7.5c-0.6,0-1,0.4-1,1    v3.7H5.7c-0.6,0-1,0.4-1,1v2.5H2c-0.6,0-1,0.4-1,1v38.9c0,0.6,0.4,1,1,1h62c0.6,0,1-0.4,1-1V9.4C65,8.9,64.6,8.4,64,8.4z     M8.5,10.4h8.3v2.7H8.5V10.4z M6.7,15.2c2.4,0,9.4,0,11.9,0v1.5H6.7V15.2z M37.7,18.7c0.4,0,0.8-0.2,0.9-0.6l3.1-7.7H63v16.1H42.9    v0.1c-2.6-2.5-6.1-4-9.9-4c-3.8,0-7.3,1.5-9.9,4v-0.1H3v-7.9C2.9,18.7,4.3,18.7,37.7,18.7z M20.6,37.1c0-6.9,5.6-12.4,12.4-12.4    s12.4,5.6,12.4,12.4S39.9,49.6,33,49.6S20.6,44,20.6,37.1z M21.4,45.7H3V28.6h18.4c-1.8,2.4-2.9,5.4-2.9,8.6    C18.6,40.4,19.6,43.3,21.4,45.7z M47.4,37.1c0-3.2-1.1-6.2-2.9-8.6H63v17.2H44.6C46.4,43.3,47.4,40.4,47.4,37.1z M3,55.6v-7.9    h20.1v-0.1c2.6,2.5,6.1,4,9.9,4c3.8,0,7.3-1.5,9.9-4v0.1H63v7.9H3z"/></g><g><path d="M33,46.1c4.9,0,8.9-4,8.9-8.9s-4-8.9-8.9-8.9s-8.9,4-8.9,8.9S28.1,46.1,33,46.1z M33,30.2c3.8,0,6.9,3.1,6.9,6.9    c0,3.8-3.1,6.9-6.9,6.9s-6.9-3.1-6.9-6.9C26.1,33.3,29.2,30.2,33,30.2z"/></g><g><path d="M30.5,38.1c0.6,0,1-0.4,1-1c0-0.8,0.7-1.5,1.5-1.5c0.6,0,1-0.4,1-1s-0.4-1-1-1c-1.9,0-3.5,1.6-3.5,3.5    C29.5,37.7,30,38.1,30.5,38.1z"/></g><g><path d="M44.1,21.9H60c0.6,0,1-0.4,1-1V14c0-0.6-0.4-1-1-1H44.1c-0.6,0-1,0.4-1,1v6.8C43.1,21.4,43.5,21.9,44.1,21.9z M45.1,15H59    v4.8H45.1V15z"/></g><g><path d="M6.8,30.4c-0.6,0-1,0.4-1,1v11.5c0,0.6,0.4,1,1,1c0.6,0,1-0.4,1-1V31.4C7.8,30.8,7.3,30.4,6.8,30.4z"/></g><g><path d="M59.2,30.4c-0.6,0-1,0.4-1,1v11.5c0,0.6,0.4,1,1,1c0.6,0,1-0.4,1-1V31.4C60.2,30.8,59.8,30.4,59.2,30.4z"/></g></g></svg>